<svg xmlns="http://www.w3.org/2000/svg" viewBox="0 0 32 32" fill="none">
  <rect width="32" height="32" rx="6" fill="#020C18"/>
  <path d="M16 4C14.9 4 14 4.9 14 6C14 6.9 14.6 7.7 15.5 8V10H11C10.4 10 10 10.4 10 11C10 11.6 10.4 12 11 12H15.5V19.8C13.1 19.4 11 18.1 9.7 16.2L11.4 15C11.8 14.7 11.9 14.2 11.6 13.8C11.3 13.4 10.8 13.3 10.4 13.6L7.4 15.6C7 15.9 6.9 16.4 7.2 16.8L9.2 19.8C9.5 20.2 10 20.3 10.4 20C10.8 19.7 10.9 19.2 10.6 18.8L9.9 17.8C11.5 20.2 14.1 21.8 17 21.9V24H15C14.4 24 14 24.4 14 25C14 25.6 14.4 26 15 26H17V28H19V26H21C21.6 26 22 25.6 22 25C22 24.4 21.6 24 21 24H19V21.9C21.9 21.8 24.5 20.2 26.1 17.8L25.4 18.8C25.1 19.2 25.2 19.7 25.6 20C26 20.3 26.5 20.2 26.8 19.8L28.8 16.8C29.1 16.4 29 15.9 28.6 15.6L25.6 13.6C25.2 13.3 24.7 13.4 24.4 13.8C24.1 14.2 24.2 14.7 24.6 15L26.3 16.2C25 18.1 22.9 19.4 20.5 19.8V12H25C25.6 12 26 11.6 26 11C26 10.4 25.6 10 25 10H20.5V8C21.4 7.7 22 6.9 22 6C22 4.9 21.1 4 20 4C18.9 4 18 4.9 18 6C18 6.9 17.4 7.7 16.5 8H15.5C15 7.7 14.5 7.1 14.5 6C14.5 5.2 15.1 4.5 16 4.5" fill="#00C8FF"/>
</svg>
